<svg viewBox="0 0 24 24" fill="currentColor" aria-hidden="true"><path d="M12 1.75A10.25 10.25 0 1 0 22.25 12 10.262 10.262 0 0 0 12 1.75zm0 18.5A8.25 8.25 0 1 1 20.25 12 8.259 8.259 0 0 1 12 20.25z"/><path d="M9.985 9.274c-.815 0-1.354.26-1.837.855l-1.16-.95c.754-.972 1.78-1.447 2.997-1.447 1.86 0 3.28 1.272 3.28 3.42 0 2.11-1.35 3.467-3.264 3.467-1.237 0-2.257-.466-3.01-1.43l1.157-.927c.475.596 1.028.864 1.824.864 1.095 0 1.822-.817 1.822-1.968 0-1.143-.727-1.912-1.81-1.912zM15.985 9.274c-.815 0-1.354.26-1.837.855l-1.16-.95c.754-.972 1.78-1.447 2.997-1.447 1.86 0 3.28 1.272 3.28 3.42 0 2.11-1.35 3.467-3.264 3.467-1.237 0-2.257-.466-3.01-1.43l1.157-.927c.475.596 1.028.864 1.824.864 1.095 0 1.822-.817 1.822-1.968 0-1.143-.727-1.912-1.81-1.912z"/></svg>
